<?xml version="1.0" standalone="no"?><!DOCTYPE svg PUBLIC "-//W3C//DTD SVG 1.1//EN" "http://www.w3.org/Graphics/SVG/1.1/DTD/svg11.dtd"><svg t="1636627506792" class="icon" viewBox="0 0 1024 1024" version="1.1" xmlns="http://www.w3.org/2000/svg" p-id="2053" xmlns:xlink="http://www.w3.org/1999/xlink" width="16" height="16"><defs><style type="text/css"></style></defs><path d="M599.9 75.2H189.5c-38.9 0-70.4 31.5-70.4 70.4v732.9c0 38.9 31.5 70.4 70.4 70.4h410.4c38.9 0 70.4-31.5 70.4-70.4V145.6c0-38.9-31.5-70.4-70.4-70.4z m-11.7 82.1v709.4H201.3V157.3h386.9z" p-id="2054"></path><path d="M471 292.1c22.7 0 41 18.4 41 41 0 22.7-18.4 41-41 41H318.5c-22.7 0-41-18.4-41-41 0-22.7 18.4-41 41-41H471zM471 468c22.7 0 41 18.4 41 41s-18.4 41-41 41H318.5c-22.7 0-41-18.4-41-41s18.4-41 41-41H471zM471 643.9c22.7 0 41 18.4 41 41 0 22.7-18.4 41-41 41H318.5c-22.7 0-41-18.4-41-41 0-22.7 18.4-41 41-41H471z" p-id="2055"></path><path d="M940 866.7h-35.2V474.9c0-30.8-20-58-49.4-67.2l-175.9-55c-6.8-2.1-13.9-3.2-21-3.2-38.9 0-70.4 31.5-70.4 70.4v446.7H84c-22.7 0-41 18.4-41 41s18.4 41 41 41h856c22.7 0 41-18.4 41-41s-18.3-40.9-41-40.9z m-269.7 0V435.8l152.4 47.7v383.2H670.3z" p-id="2056"></path></svg>