<?xml version="1.0" standalone="no"?><!DOCTYPE svg PUBLIC "-//W3C//DTD SVG 1.1//EN" "http://www.w3.org/Graphics/SVG/1.1/DTD/svg11.dtd"><svg t="1645436681272" class="icon" viewBox="0 0 1024 1024" version="1.1" xmlns="http://www.w3.org/2000/svg" p-id="2280" xmlns:xlink="http://www.w3.org/1999/xlink" width="16" height="16"><defs><style type="text/css"></style></defs><path d="M591.4 94.62c119 0 215.84 98.86 215.84 220.37 0 82.11-44.22 153.87-109.62 191.78 149.09 46.51 257.84 188.32 257.84 355.57V864.56a38.68 38.68 0 0 1-38.68 38.68H264.71A38.68 38.68 0 0 1 226 864.61v-0.34a38.72 38.72 0 0 1 1.41-10.39l-0.11 8.46c0-167.25 108.76-309.06 257.86-355.58C419.77 468.87 375.55 397.1 375.55 315c0-121.52 96.83-220.38 215.85-220.38z m0 466.81c-150.33 0-274.73 115.51-292.54 264.15h585.07C866.12 676.94 741.72 561.43 591.4 561.43z m-287.28-353.1c19.14 0 34.67 15.85 34.67 35.4s-15.53 35.4-34.67 35.4c-41 0-74.31 34-74.31 75.85s33.33 75.85 74.31 75.85c19.14 0 34.67 15.85 34.67 35.4 0 17.77-12.83 32.49-29.55 35l-5.12 0.39c-77.64 0-142.8 55.53-159.39 129.73h39.85A38.69 38.69 0 0 1 223.27 670v0.34A38.69 38.69 0 0 1 184.58 709h-77.36a38.68 38.68 0 0 1-38.68-38.68V670a38.54 38.54 0 0 1 3.15-15.32c4.92-87 55.89-161.63 128.33-198.75a147.73 147.73 0 0 1-39.56-101c0-80.82 64.45-146.6 143.66-146.6z m287.28-42.91c-80.79 0-146.5 67.09-146.5 149.57s65.71 149.56 146.5 149.56S737.89 397.46 737.89 315 672.18 165.42 591.4 165.42z" p-id="2281"></path><path d="M916.79 907.19h-652.1a42.64 42.64 0 0 1-42.6-42.59 45 45 0 0 1 1.43-11.26c3.77-157.18 106.08-298.11 252.35-347.63C411.37 464.85 371.63 392.6 371.63 315c0-123.71 98.59-224.33 219.74-224.33S811.17 191.3 811.17 315c0 77.59-39.74 149.84-104.24 190.7C856 556.2 959.38 701.56 959.38 862.36v1.93a42.7 42.7 0 0 1-42.59 42.9zM230 862.41c-0.05 0.61-0.05 1.27-0.05 1.88a34.86 34.86 0 0 0 34.75 35.06h652.1a34.79 34.79 0 0 0 34.75-34.75v-1.38c0-161.15-104.91-305.85-255.11-352.72l-8.51-2.65 7.75-4.43C762.06 464.9 803.32 392.71 803.32 315c0-119.38-95.07-216.49-212-216.49S379.48 195.63 379.48 315c0 77.7 41.27 149.89 107.7 188.41l7.7 4.43-8.51 2.65C338.77 556.56 234.93 697 231.37 854l-0.11 8.46z m658.37-32.92H294.44l0.56-4.38c18.24-152.54 145.67-267.58 296.37-267.58s278.19 115 296.43 267.58z m-585-7.84h576.12c-19.66-146.43-142.76-256.28-288.12-256.28S323 675.22 303.31 821.65zM184.59 713H107.2a42.91 42.91 0 0 1-39.38-59.2c4.94-83.81 53-159.57 126-199a151.31 151.31 0 0 1-37.3-99.8c0-83 66.24-150.6 147.6-150.6 21.25 0 38.57 17.63 38.57 39.33s-17.32 39.33-38.57 39.33c-38.82 0-70.41 32.25-70.41 71.94s31.59 71.89 70.41 71.89c21.25 0 38.57 17.63 38.57 39.34 0 19.36-14.16 36.07-32.91 38.87l-5.35 0.46c-72.45 0-136.6 50.95-154.74 121.87h34.9a42.77 42.77 0 0 1 0 85.54z m119.53-500.76c-77.12 0-139.75 64.05-139.75 142.76a143.6 143.6 0 0 0 38.52 98.28l3.51 3.77-4.58 2.35C128.65 497 80.25 571.84 75.61 654.89l-0.35 1.38a35.12 35.12 0 0 0 31.94 48.86h77.39a34.93 34.93 0 0 0 0-69.85h-44.73l1.07-4.79c17.17-76.94 85.8-132.78 163.19-132.78l4.79-0.41c14.67-2.19 25.93-15.53 25.93-31.07 0-17.38-13.75-31.49-30.72-31.49-43.12 0-78.26-35.74-78.26-79.74s35.11-79.78 78.26-79.78c17 0 30.72-14.12 30.72-31.49s-13.75-31.49-30.72-31.49z m287.25 256.23C508.43 468.47 441 399.63 441 315s67.43-153.5 150.37-153.5S741.83 230.38 741.83 315s-67.51 153.47-150.46 153.47z m0-299.13c-78.61 0-142.55 65.32-142.55 145.67s63.94 145.61 142.55 145.61S734 395.3 734 315s-64-145.66-142.63-145.66z" p-id="2282"></path></svg>